<svg width="858" height="509" viewBox="0 0 858 509" fill="none" xmlns="http://www.w3.org/2000/svg">
<g opacity="0.3">
<path d="M827.265 228.457V215" stroke="#636F7D" stroke-miterlimit="10" stroke-linecap="round" stroke-linejoin="round"/>
<path d="M823.679 220.176H830.85" stroke="#636F7D" stroke-miterlimit="10" stroke-linecap="round" stroke-linejoin="round"/>
<path d="M810.15 487.253H858V481.789H810.15V487.253Z" fill="#636F7D"/>
<path d="M847.737 399.411C847.737 429.41 823.36 453.727 793.292 453.727C763.221 453.727 738.845 429.41 738.845 399.411C738.845 369.412 763.221 345.093 793.292 345.093C823.36 345.093 847.737 369.412 847.737 399.411Z" stroke="#636F7D" stroke-miterlimit="10" stroke-linecap="round" stroke-linejoin="round"/>
<path d="M838.178 399.411C838.178 424.141 818.081 444.191 793.292 444.191C768.501 444.191 748.406 424.141 748.406 399.411C748.406 374.679 768.501 354.632 793.292 354.632C818.081 354.632 838.178 374.679 838.178 399.411Z" stroke="#636F7D" stroke-miterlimit="10" stroke-linecap="round" stroke-linejoin="round"/>
<path d="M814.079 399.411C814.079 410.863 804.772 420.149 793.292 420.149C781.811 420.149 772.503 410.863 772.503 399.411C772.503 387.957 781.811 378.672 793.292 378.672C804.772 378.672 814.079 387.957 814.079 399.411Z" stroke="#636F7D" stroke-miterlimit="10" stroke-linecap="round" stroke-linejoin="round"/>
<path d="M800.046 399.411C800.046 403.132 797.022 406.152 793.292 406.152C789.56 406.152 786.536 403.132 786.536 399.411C786.536 395.688 789.56 392.671 793.292 392.671C797.022 392.671 800.046 395.688 800.046 399.411Z" fill="#636F7D"/>
<path d="M793.292 345.093V453.727" stroke="#636F7D" stroke-miterlimit="10" stroke-linecap="round" stroke-linejoin="round"/>
<path d="M779.2 346.944L807.384 451.876" stroke="#636F7D" stroke-miterlimit="10" stroke-linecap="round" stroke-linejoin="round"/>
<path d="M766.069 352.37L820.515 446.451" stroke="#636F7D" stroke-miterlimit="10" stroke-linecap="round" stroke-linejoin="round"/>
<path d="M754.792 361.003L831.791 437.818" stroke="#636F7D" stroke-miterlimit="10" stroke-linecap="round" stroke-linejoin="round"/>
<path d="M746.138 372.252L840.444 426.569" stroke="#636F7D" stroke-miterlimit="10" stroke-linecap="round" stroke-linejoin="round"/>
<path d="M740.7 385.352L845.882 413.469" stroke="#636F7D" stroke-miterlimit="10" stroke-linecap="round" stroke-linejoin="round"/>
<path d="M738.845 399.412H847.737" stroke="#636F7D" stroke-miterlimit="10" stroke-linecap="round" stroke-linejoin="round"/>
<path d="M740.7 413.47L845.882 385.352" stroke="#636F7D" stroke-miterlimit="10" stroke-linecap="round" stroke-linejoin="round"/>
<path d="M746.138 426.57L840.444 372.252" stroke="#636F7D" stroke-miterlimit="10" stroke-linecap="round" stroke-linejoin="round"/>
<path d="M754.792 437.819L831.791 361.003" stroke="#636F7D" stroke-miterlimit="10" stroke-linecap="round" stroke-linejoin="round"/>
<path d="M766.069 446.452L820.515 352.37" stroke="#636F7D" stroke-miterlimit="10" stroke-linecap="round" stroke-linejoin="round"/>
<path d="M779.2 451.877L807.384 346.944" stroke="#636F7D" stroke-miterlimit="10" stroke-linecap="round" stroke-linejoin="round"/>
<path d="M800.969 342.51C799.745 345.541 796.769 347.677 793.292 347.677C789.816 347.677 786.839 345.541 785.613 342.51H800.969Z" fill="#636F7D"/>
<path d="M773.745 350.119C772.522 353.149 769.546 355.286 766.069 355.286C762.594 355.286 759.616 353.149 758.391 350.119H773.745Z" fill="#636F7D"/>
<path d="M754.792 369.669C753.569 372.7 750.592 374.836 747.113 374.836C743.64 374.836 740.662 372.7 739.436 369.669H754.792Z" fill="#636F7D"/>
<path d="M746.522 396.827C745.3 399.86 742.321 401.995 738.845 401.995C735.371 401.995 732.393 399.86 731.167 396.827H746.522Z" fill="#636F7D"/>
<path d="M753.817 424.514C752.594 427.544 749.616 429.681 746.138 429.681C742.665 429.681 739.687 427.544 738.461 424.514H753.817Z" fill="#636F7D"/>
<path d="M773.745 443.868C772.522 446.899 769.546 449.033 766.069 449.033C762.594 449.033 759.616 446.899 758.391 443.868H773.745Z" fill="#636F7D"/>
<path d="M812.837 350.119C814.06 353.149 817.037 355.286 820.515 355.286C823.99 355.286 826.967 353.149 828.192 350.119H812.837Z" fill="#636F7D"/>
<path d="M831.791 369.669C833.014 372.7 835.99 374.836 839.469 374.836C842.942 374.836 845.92 372.7 847.146 369.669H831.791Z" fill="#636F7D"/>
<path d="M840.06 396.827C841.283 399.86 844.26 401.995 847.737 401.995C851.212 401.995 854.19 399.86 855.416 396.827H840.06Z" fill="#636F7D"/>
<path d="M832.766 424.514C833.99 427.544 836.966 429.681 840.444 429.681C843.918 429.681 846.896 427.544 848.122 424.514H832.766Z" fill="#636F7D"/>
<path d="M812.837 443.868C814.06 446.899 817.037 449.033 820.515 449.033C823.99 449.033 826.967 446.899 828.192 443.868H812.837Z" fill="#636F7D"/>
<path d="M800.969 451.449C799.745 454.48 796.769 456.615 793.292 456.615C789.816 456.615 786.839 454.48 785.613 451.449H800.969Z" fill="#636F7D"/>
<path d="M838.178 474.379V482.292H814.995V474.379H818.49L793.032 399.411L831.184 474.379H838.178Z" fill="#636F7D"/>
<path d="M747.886 474.379V482.292H771.069V474.379H767.572L793.032 399.411L754.88 474.379H747.886Z" fill="#636F7D"/>
<path d="M849.348 305.623V342.323H845.952V481.786H808.598V342.323H805.203V305.623H810.953V294.331L819.602 275.607H820.009V261.876H818.31V259.324H820.009L826.052 228.45H828.477L834.522 259.324H836.22V261.876H834.522V275.607H834.928L843.578 294.331V305.623H849.348Z" fill="white"/>
<path d="M845.944 373.661H808.588V368.985H845.944V373.661Z" stroke="#636F7D" stroke-miterlimit="10" stroke-linecap="round" stroke-linejoin="round"/>
<path d="M845.944 400.48H808.588V395.804H845.944V400.48Z" stroke="#636F7D" stroke-miterlimit="10" stroke-linecap="round" stroke-linejoin="round"/>
<path d="M845.944 454.402H808.588V449.726H845.944V454.402Z" stroke="#636F7D" stroke-miterlimit="10" stroke-linecap="round" stroke-linejoin="round"/>
<path d="M845.944 432.099H808.588V422.623H845.944V432.099Z" stroke="#636F7D" stroke-miterlimit="10" stroke-linecap="round" stroke-linejoin="round"/>
<path d="M841.131 342.323H813.398V305.623H841.131V342.323Z" stroke="#636F7D" stroke-miterlimit="10" stroke-linecap="round" stroke-linejoin="round"/>
<path d="M841.131 481.786H813.398V342.323H841.131V481.786Z" stroke="#636F7D" stroke-miterlimit="10" stroke-linecap="round" stroke-linejoin="round"/>
<path d="M816.228 345.712V473.317" stroke="#636F7D" stroke-miterlimit="10" stroke-linecap="round" stroke-linejoin="round"/>
<path d="M819.907 345.712V473.317" stroke="#636F7D" stroke-miterlimit="10" stroke-linecap="round" stroke-linejoin="round"/>
<path d="M823.586 345.712V473.317" stroke="#636F7D" stroke-miterlimit="10" stroke-linecap="round" stroke-linejoin="round"/>
<path d="M827.265 345.712V473.317" stroke="#636F7D" stroke-miterlimit="10" stroke-linecap="round" stroke-linejoin="round"/>
<path d="M830.945 345.712V473.317" stroke="#636F7D" stroke-miterlimit="10" stroke-linecap="round" stroke-linejoin="round"/>
<path d="M834.624 345.712V473.317" stroke="#636F7D" stroke-miterlimit="10" stroke-linecap="round" stroke-linejoin="round"/>
<path d="M838.303 345.712V473.317" stroke="#636F7D" stroke-miterlimit="10" stroke-linecap="round" stroke-linejoin="round"/>
<path d="M841.131 334.512H813.398V305.623H841.131V334.512Z" stroke="#636F7D" stroke-miterlimit="10" stroke-linecap="round" stroke-linejoin="round"/>
<path d="M839.16 332.459H815.368V309.2H839.16V332.459Z" stroke="#636F7D" stroke-miterlimit="10" stroke-linecap="round" stroke-linejoin="round"/>
<path d="M838.303 320.83C838.303 326.912 833.359 331.841 827.265 331.841C821.17 331.841 816.228 326.912 816.228 320.83C816.228 314.749 821.17 309.82 827.265 309.82C833.359 309.82 838.303 314.749 838.303 320.83Z" stroke="#636F7D" stroke-miterlimit="10" stroke-linecap="round" stroke-linejoin="round"/>
<path d="M822.831 320.83H827.265" stroke="#636F7D" stroke-miterlimit="10" stroke-linecap="round" stroke-linejoin="round"/>
<path d="M827.265 315.71V320.83" stroke="#636F7D" stroke-miterlimit="10" stroke-linecap="round" stroke-linejoin="round"/>
<path d="M828.862 297.809V303.748H826.416V297.809C826.416 297.131 826.96 296.589 827.637 296.589C828.318 296.589 828.862 297.131 828.862 297.809Z" fill="#636F7D"/>
<path d="M828.862 266.375V272.314H826.416V266.375C826.416 265.698 826.96 265.155 827.637 265.155C828.318 265.155 828.862 265.698 828.862 266.375Z" fill="#636F7D"/>
<path d="M832.304 266.375V272.314H829.859V266.375C829.859 265.698 830.403 265.155 831.082 265.155C831.76 265.155 832.304 265.698 832.304 266.375Z" fill="#636F7D"/>
<path d="M822.972 266.375V272.314H825.417V266.375C825.417 265.698 824.875 265.155 824.194 265.155C823.515 265.155 822.972 265.698 822.972 266.375Z" fill="#636F7D"/>
<path d="M825.418 297.809V303.748H822.974V297.809C822.974 297.131 823.517 296.589 824.196 296.589C824.875 296.589 825.418 297.131 825.418 297.809Z" fill="#636F7D"/>
<path d="M821.977 297.809V303.748H819.531V297.809C819.531 297.131 820.075 296.589 820.753 296.589C821.432 296.589 821.977 297.131 821.977 297.809Z" fill="#636F7D"/>
<path d="M818.534 297.809V303.748H816.089V297.809C816.089 297.131 816.633 296.589 817.313 296.589C817.99 296.589 818.534 297.131 818.534 297.809Z" fill="#636F7D"/>
<path d="M829.857 297.809V303.748H832.302V297.809C832.302 297.131 831.757 296.589 831.082 296.589C830.401 296.589 829.857 297.131 829.857 297.809Z" fill="#636F7D"/>
<path d="M833.302 297.809V303.748H835.746V297.809C835.746 297.131 835.204 296.589 834.522 296.589C833.845 296.589 833.302 297.131 833.302 297.809Z" fill="#636F7D"/>
<path d="M836.741 297.809V303.748H839.187V297.809C839.187 297.131 838.643 296.589 837.966 296.589C837.286 296.589 836.741 297.131 836.741 297.809Z" fill="#636F7D"/>
<path d="M845.944 481.786H808.588V342.323H845.944V481.786Z" stroke="#636F7D" stroke-miterlimit="10" stroke-linecap="round" stroke-linejoin="round"/>
<path d="M849.339 342.323H805.192V305.623H849.339V342.323Z" stroke="#636F7D" stroke-miterlimit="10" stroke-linecap="round" stroke-linejoin="round"/>
<path d="M843.584 305.623H810.945V294.331H843.584V305.623Z" stroke="#636F7D" stroke-miterlimit="10" stroke-linecap="round" stroke-linejoin="round"/>
<path d="M834.522 275.604H820.008V261.864H834.522V275.604Z" stroke="#636F7D" stroke-miterlimit="10" stroke-linecap="round" stroke-linejoin="round"/>
<path d="M834.522 259.324H820.008L826.056 228.457H828.473L834.522 259.324Z" stroke="#636F7D" stroke-miterlimit="10" stroke-linecap="round" stroke-linejoin="round"/>
<path d="M836.227 261.864H818.302V259.324H836.227V261.864Z" stroke="#636F7D" stroke-miterlimit="10" stroke-linecap="round" stroke-linejoin="round"/>
<path d="M843.584 294.331H810.945L819.597 275.604H834.932L843.584 294.331Z" stroke="#636F7D" stroke-miterlimit="10" stroke-linecap="round" stroke-linejoin="round"/>
<path d="M808.083 296.589V305.623" stroke="#636F7D" stroke-miterlimit="10" stroke-linecap="round" stroke-linejoin="round"/>
<path d="M847.194 296.589V305.623" stroke="#636F7D" stroke-miterlimit="10" stroke-linecap="round" stroke-linejoin="round"/>
<path d="M471.298 470.501V508.281H421.639V470.501H430.927V403.788H429.377V377.834L431.771 362.151H432.828L434.429 372.673H439.294L444.904 352.97H448.034L453.642 372.673H458.509L460.109 362.151H461.166L463.56 377.834V403.788H462.009V470.501H471.298Z" fill="white"/>
<path d="M448.731 453.257V463.949H444.207V453.257C444.207 452.011 445.223 450.999 446.466 450.999C447.717 450.999 448.731 452.011 448.731 453.257Z" fill="#636F7D"/>
<path d="M447.889 435.091V441.81H445.049V435.091C445.049 434.308 445.686 433.672 446.467 433.672C447.253 433.672 447.889 434.308 447.889 435.091Z" fill="#636F7D"/>
<path d="M454.678 435.091V441.81H451.836V435.091C451.836 434.308 452.473 433.672 453.255 433.672C454.041 433.672 454.678 434.308 454.678 435.091Z" fill="#636F7D"/>
<path d="M441.102 435.091V441.81H438.26V435.091C438.26 434.308 438.898 433.672 439.679 433.672C440.465 433.672 441.102 434.308 441.102 435.091Z" fill="#636F7D"/>
<path d="M447.889 416.081V422.798H445.049V416.081C445.049 415.296 445.686 414.66 446.467 414.66C447.253 414.66 447.889 415.296 447.889 416.081Z" fill="#636F7D"/>
<path d="M447.889 381.732V385.585H445.049V381.732C445.049 380.948 445.686 380.311 446.467 380.311C447.253 380.311 447.889 380.948 447.889 381.732Z" fill="#636F7D"/>
<path d="M454.678 416.081V422.798H451.836V416.081C451.836 415.296 452.473 414.66 453.255 414.66C454.041 414.66 454.678 415.296 454.678 416.081Z" fill="#636F7D"/>
<path d="M441.102 416.081V422.798H438.26V416.081C438.26 415.296 438.898 414.66 439.679 414.66C440.465 414.66 441.102 415.296 441.102 416.081Z" fill="#636F7D"/>
<path d="M440.485 453.276H438.936V450.364H440.485V453.276Z" fill="#636F7D"/>
<path d="M440.485 458.116H438.936V455.206H440.485V458.116Z" fill="#636F7D"/>
<path d="M447.244 449.474H445.694V447.572H447.244V449.474Z" fill="#636F7D"/>
<path d="M440.485 462.956H438.936V460.047H440.485V462.956Z" fill="#636F7D"/>
<path d="M454.032 453.276H452.483V450.364H454.032V453.276Z" fill="#636F7D"/>
<path d="M454.032 458.116H452.483V455.206H454.032V458.116Z" fill="#636F7D"/>
<path d="M454.032 462.956H452.483V460.047H454.032V462.956Z" fill="#636F7D"/>
<path d="M463.558 390.753H429.38V389.206H463.558V390.753Z" stroke="#636F7D" stroke-miterlimit="10" stroke-linecap="round" stroke-linejoin="round"/>
<path d="M435.216 377.834V470.501" stroke="#636F7D" stroke-miterlimit="10" stroke-linecap="round" stroke-linejoin="round"/>
<path d="M458.08 377.834V470.501" stroke="#636F7D" stroke-miterlimit="10" stroke-linecap="round" stroke-linejoin="round"/>
<path d="M449.863 398.204H443.075V391.847H449.863V398.204Z" fill="#636F7D"/>
<path d="M440.693 398.204H437.825V391.847H440.693V398.204Z" fill="#636F7D"/>
<path d="M455.115 398.204H452.245V391.847H455.115V398.204Z" fill="#636F7D"/>
<path d="M449.863 401.472H443.075V399.334H449.863V401.472Z" fill="#636F7D"/>
<path d="M440.693 401.472H437.825V399.334H440.693V401.472Z" fill="#636F7D"/>
<path d="M455.115 401.472H452.245V399.334H455.115V401.472Z" fill="#636F7D"/>
<path d="M452.242 377.834V389.204C452.242 389.204 446.647 389.204 446.469 389.204C446.29 389.204 440.695 389.204 440.695 389.204V377.834L446.469 369.993L452.242 377.834Z" stroke="#636F7D" stroke-miterlimit="10" stroke-linecap="round" stroke-linejoin="round"/>
<path d="M432.514 355.559H432.081V362.151H432.514V355.559Z" fill="#636F7D"/>
<path d="M434.211 357.957V357.525H430.384V357.957H434.211Z" fill="#636F7D"/>
<path d="M446.685 346.377H446.253V352.97H446.685V346.377Z" fill="#636F7D"/>
<path d="M448.382 348.776V348.344H444.556V348.776H448.382Z" fill="#636F7D"/>
<path d="M460.857 355.559H460.426V362.151H460.857V355.559Z" fill="#636F7D"/>
<path d="M462.555 357.957V357.525H458.728V357.957H462.555Z" fill="#636F7D"/>
<path d="M434.429 372.67H439.294" stroke="#636F7D" stroke-miterlimit="10" stroke-linecap="round" stroke-linejoin="round"/>
<path d="M453.65 372.67H458.516" stroke="#636F7D" stroke-miterlimit="10" stroke-linecap="round" stroke-linejoin="round"/>
<path d="M421.639 470.501H471.299V508.281H421.639V470.501Z" stroke="#636F7D" stroke-miterlimit="10" stroke-linecap="round" stroke-linejoin="round"/>
<path d="M430.928 445.731H462.01V470.501H430.928V445.731Z" stroke="#636F7D" stroke-miterlimit="10" stroke-linecap="round" stroke-linejoin="round"/>
<path d="M430.928 441.81H462.01V445.731H430.928V441.81Z" stroke="#636F7D" stroke-miterlimit="10" stroke-linecap="round" stroke-linejoin="round"/>
<path d="M430.928 426.663H462.01V441.81H430.928V426.663Z" stroke="#636F7D" stroke-miterlimit="10" stroke-linecap="round" stroke-linejoin="round"/>
<path d="M430.928 422.798H462.01V426.606H430.928V422.798Z" stroke="#636F7D" stroke-miterlimit="10" stroke-linecap="round" stroke-linejoin="round"/>
<path d="M430.928 407.651H462.01V422.798H430.928V407.651Z" stroke="#636F7D" stroke-miterlimit="10" stroke-linecap="round" stroke-linejoin="round"/>
<path d="M430.928 403.786H462.01V407.594H430.928V403.786Z" stroke="#636F7D" stroke-miterlimit="10" stroke-linecap="round" stroke-linejoin="round"/>
<path d="M463.561 377.834V403.788H429.378V377.834H440.695V389.204C440.695 389.204 446.29 389.204 446.469 389.204C446.647 389.204 452.242 389.204 452.242 389.204V377.834H463.561Z" stroke="#636F7D" stroke-miterlimit="10" stroke-linecap="round" stroke-linejoin="round"/>
<path d="M432.826 362.151H431.768L429.38 377.834H435.216L432.826 362.151Z" stroke="#636F7D" stroke-miterlimit="10" stroke-linecap="round" stroke-linejoin="round"/>
<path d="M461.169 362.151H460.112L457.724 377.834H463.558L461.169 362.151Z" stroke="#636F7D" stroke-miterlimit="10" stroke-linecap="round" stroke-linejoin="round"/>
<path d="M455.115 377.834H452.242L446.469 369.993L440.695 377.834H437.824L444.904 352.97H448.034L455.115 377.834Z" stroke="#636F7D" stroke-miterlimit="10" stroke-linecap="round" stroke-linejoin="round"/>
<path d="M581.851 481.786V486.297C563.573 485.121 545.137 484.522 526.567 484.522C507.997 484.522 489.569 485.121 471.298 486.297V481.786H581.851Z" fill="#636F7D"/>
<path d="M471.298 479.65H581.85V477.986H471.298V479.65Z" fill="#636F7D"/>
<path d="M264.495 481.789H421.639V477.986H264.495V481.789Z" stroke="#636F7D" stroke-miterlimit="10" stroke-linecap="round" stroke-linejoin="round"/>
<path d="M264.495 487.253H421.639V481.789H264.495V487.253Z" fill="#636F7D"/>
<path d="M346.907 474.154C346.907 476.273 345.188 477.986 343.067 477.986C340.946 477.986 339.226 476.273 339.226 474.154C339.226 472.038 340.946 470.323 343.067 470.323C345.188 470.323 346.907 472.038 346.907 474.154Z" fill="#636F7D"/>
<path d="M430.928 405.691C430.928 405.691 408.354 453.275 344.085 470.501" stroke="#636F7D" stroke-miterlimit="10" stroke-linecap="round" stroke-linejoin="round"/>
<path d="M263.065 453.215C263.065 453.215 291.644 474.449 341.097 471.049" stroke="#636F7D" stroke-miterlimit="10" stroke-linecap="round" stroke-linejoin="round"/>
<path d="M416.26 426.606V481.789" stroke="#636F7D" stroke-miterlimit="10" stroke-linecap="round" stroke-linejoin="round"/>
<path d="M405.912 481.786V437.155" stroke="#636F7D" stroke-miterlimit="10" stroke-linecap="round" stroke-linejoin="round"/>
<path d="M395.566 481.786V445.738" stroke="#636F7D" stroke-miterlimit="10" stroke-linecap="round" stroke-linejoin="round"/>
<path d="M385.219 481.786V452.824" stroke="#636F7D" stroke-miterlimit="10" stroke-linecap="round" stroke-linejoin="round"/>
<path d="M374.873 481.786V458.689" stroke="#636F7D" stroke-miterlimit="10" stroke-linecap="round" stroke-linejoin="round"/>
<path d="M364.52 481.786V463.522" stroke="#636F7D" stroke-miterlimit="10" stroke-linecap="round" stroke-linejoin="round"/>
<path d="M354.173 481.786V467.444" stroke="#636F7D" stroke-miterlimit="10" stroke-linecap="round" stroke-linejoin="round"/>
<path d="M269.873 481.786V457.343" stroke="#636F7D" stroke-miterlimit="10" stroke-linecap="round" stroke-linejoin="round"/>
<path d="M280.22 481.786V462.133" stroke="#636F7D" stroke-miterlimit="10" stroke-linecap="round" stroke-linejoin="round"/>
<path d="M290.565 481.786V465.747" stroke="#636F7D" stroke-miterlimit="10" stroke-linecap="round" stroke-linejoin="round"/>
<path d="M300.912 481.786V468.385" stroke="#636F7D" stroke-miterlimit="10" stroke-linecap="round" stroke-linejoin="round"/>
<path d="M311.259 481.786V470.159" stroke="#636F7D" stroke-miterlimit="10" stroke-linecap="round" stroke-linejoin="round"/>
<path d="M321.611 481.786V471.157" stroke="#636F7D" stroke-miterlimit="10" stroke-linecap="round" stroke-linejoin="round"/>
<path d="M331.958 481.786V471.407" stroke="#636F7D" stroke-miterlimit="10" stroke-linecap="round" stroke-linejoin="round"/>
<path d="M264.493 470.145V508.28H243V470.145H244.428V449.708H244.85L247.887 446.265H259.605L262.642 449.708H263.064V470.145H264.493Z" fill="white"/>
<path d="M243 470.145H264.495V508.28H243V470.145Z" stroke="#636F7D" stroke-miterlimit="10" stroke-linecap="round" stroke-linejoin="round"/>
<path d="M244.429 449.711H263.065V470.145H244.429V449.711Z" stroke="#636F7D" stroke-miterlimit="10" stroke-linecap="round" stroke-linejoin="round"/>
<path d="M247.89 446.265H259.605L263.065 449.711H244.429L247.89 446.265Z" stroke="#636F7D" stroke-miterlimit="10" stroke-linecap="round" stroke-linejoin="round"/>
<path d="M581.85 470.501V508.281H631.511V470.501H622.221V403.788H623.772V377.834L621.378 362.151H620.321L618.721 372.673H613.854L608.245 352.97H605.116L599.506 372.673H594.64L593.04 362.151H591.982L589.589 377.834V403.788H591.139V470.501H581.85Z" fill="white"/>
<path d="M604.418 453.257V463.949H608.941V453.257C608.941 452.011 607.927 450.999 606.684 450.999C605.433 450.999 604.418 452.011 604.418 453.257Z" fill="#636F7D"/>
<path d="M605.26 435.091V441.81H608.101V435.091C608.101 434.308 607.464 433.672 606.682 433.672C605.897 433.672 605.26 434.308 605.26 435.091Z" fill="#636F7D"/>
<path d="M598.472 435.091V441.81H601.313V435.091C601.313 434.308 600.675 433.672 599.895 433.672C599.108 433.672 598.472 434.308 598.472 435.091Z" fill="#636F7D"/>
<path d="M612.048 435.091V441.81H614.889V435.091C614.889 434.308 614.252 433.672 613.47 433.672C612.684 433.672 612.048 434.308 612.048 435.091Z" fill="#636F7D"/>
<path d="M605.26 416.081V422.798H608.101V416.081C608.101 415.296 607.464 414.66 606.682 414.66C605.897 414.66 605.26 415.296 605.26 416.081Z" fill="#636F7D"/>
<path d="M605.26 381.732V385.585H608.101V381.732C608.101 380.948 607.464 380.311 606.682 380.311C605.897 380.311 605.26 380.948 605.26 381.732Z" fill="#636F7D"/>
<path d="M598.472 416.081V422.798H601.313V416.081C601.313 415.296 600.675 414.66 599.895 414.66C599.108 414.66 598.472 415.296 598.472 416.081Z" fill="#636F7D"/>
<path d="M612.048 416.081V422.798H614.889V416.081C614.889 415.296 614.252 414.66 613.47 414.66C612.684 414.66 612.048 415.296 612.048 416.081Z" fill="#636F7D"/>
<path d="M612.664 453.276H614.213V450.364H612.664V453.276Z" fill="#636F7D"/>
<path d="M612.664 458.116H614.213V455.206H612.664V458.116Z" fill="#636F7D"/>
<path d="M605.906 449.474H607.455V447.572H605.906V449.474Z" fill="#636F7D"/>
<path d="M612.664 462.956H614.213V460.047H612.664V462.956Z" fill="#636F7D"/>
<path d="M599.117 453.276H600.666V450.364H599.117V453.276Z" fill="#636F7D"/>
<path d="M599.117 458.116H600.666V455.206H599.117V458.116Z" fill="#636F7D"/>
<path d="M599.117 462.956H600.666V460.047H599.117V462.956Z" fill="#636F7D"/>
<path d="M589.591 390.753H623.769V389.206H589.591V390.753Z" stroke="#636F7D" stroke-miterlimit="10" stroke-linecap="round" stroke-linejoin="round"/>
<path d="M617.934 377.834V470.501" stroke="#636F7D" stroke-miterlimit="10" stroke-linecap="round" stroke-linejoin="round"/>
<path d="M595.069 377.834V470.501" stroke="#636F7D" stroke-miterlimit="10" stroke-linecap="round" stroke-linejoin="round"/>
<path d="M603.286 398.204H610.074V391.847H603.286V398.204Z" fill="#636F7D"/>
<path d="M612.456 398.204H615.324V391.847H612.456V398.204Z" fill="#636F7D"/>
<path d="M598.035 398.204H600.904V391.847H598.035V398.204Z" fill="#636F7D"/>
<path d="M603.286 401.472H610.074V399.334H603.286V401.472Z" fill="#636F7D"/>
<path d="M612.456 401.472H615.324V399.334H612.456V401.472Z" fill="#636F7D"/>
<path d="M598.035 401.472H600.904V399.334H598.035V401.472Z" fill="#636F7D"/>
<path d="M600.907 377.834V389.204C600.907 389.204 606.502 389.204 606.68 389.204C606.859 389.204 612.454 389.204 612.454 389.204V377.834L606.68 369.993L600.907 377.834Z" stroke="#636F7D" stroke-miterlimit="10" stroke-linecap="round" stroke-linejoin="round"/>
<path d="M620.635 355.559H621.068V362.151H620.635V355.559Z" fill="#636F7D"/>
<path d="M592.292 355.559H592.724V362.151H592.292V355.559Z" fill="#636F7D"/>
<path d="M618.721 372.67H613.854" stroke="#636F7D" stroke-miterlimit="10" stroke-linecap="round" stroke-linejoin="round"/>
<path d="M599.499 372.67H594.634" stroke="#636F7D" stroke-miterlimit="10" stroke-linecap="round" stroke-linejoin="round"/>
<path d="M631.51 470.501H581.849V508.281H631.51V470.501Z" stroke="#636F7D" stroke-miterlimit="10" stroke-linecap="round" stroke-linejoin="round"/>
<path d="M622.221 445.731H591.139V470.501H622.221V445.731Z" stroke="#636F7D" stroke-miterlimit="10" stroke-linecap="round" stroke-linejoin="round"/>
<path d="M622.221 441.81H591.139V445.731H622.221V441.81Z" stroke="#636F7D" stroke-miterlimit="10" stroke-linecap="round" stroke-linejoin="round"/>
<path d="M622.221 426.663H591.139V441.81H622.221V426.663Z" stroke="#636F7D" stroke-miterlimit="10" stroke-linecap="round" stroke-linejoin="round"/>
<path d="M622.221 422.798H591.139V426.606H622.221V422.798Z" stroke="#636F7D" stroke-miterlimit="10" stroke-linecap="round" stroke-linejoin="round"/>
<path d="M622.221 407.651H591.139V422.798H622.221V407.651Z" stroke="#636F7D" stroke-miterlimit="10" stroke-linecap="round" stroke-linejoin="round"/>
<path d="M622.221 403.786H591.139V407.594H622.221V403.786Z" stroke="#636F7D" stroke-miterlimit="10" stroke-linecap="round" stroke-linejoin="round"/>
<path d="M589.588 377.834V403.788H623.771V377.834H612.454V389.204C612.454 389.204 606.859 389.204 606.68 389.204C606.502 389.204 600.907 389.204 600.907 389.204V377.834H589.588Z" stroke="#636F7D" stroke-miterlimit="10" stroke-linecap="round" stroke-linejoin="round"/>
<path d="M620.323 362.151H621.381L623.769 377.834H617.934L620.323 362.151Z" stroke="#636F7D" stroke-miterlimit="10" stroke-linecap="round" stroke-linejoin="round"/>
<path d="M591.98 362.151H593.037L595.426 377.834H589.591L591.98 362.151Z" stroke="#636F7D" stroke-miterlimit="10" stroke-linecap="round" stroke-linejoin="round"/>
<path d="M598.034 377.834H600.907L606.68 369.993L612.454 377.834H615.326L608.245 352.97H605.115L598.034 377.834Z" stroke="#636F7D" stroke-miterlimit="10" stroke-linecap="round" stroke-linejoin="round"/>
<path d="M619.08 358.016V357.58H622.95V358.016H619.08Z" fill="#636F7D"/>
<path d="M606.461 346.303H606.898V352.973H606.461V346.303Z" fill="#636F7D"/>
<path d="M604.745 348.729V348.293H608.616V348.729H604.745Z" fill="#636F7D"/>
<path d="M590.412 358.016V357.58H594.282V358.016H590.412Z" fill="#636F7D"/>
<path d="M788.654 481.789H631.51V477.986H788.654V481.789Z" stroke="#636F7D" stroke-miterlimit="10" stroke-linecap="round" stroke-linejoin="round"/>
<path d="M788.654 487.253H631.51V481.789H788.654V487.253Z" fill="#636F7D"/>
<path d="M706.242 474.154C706.242 476.273 707.96 477.986 710.082 477.986C712.203 477.986 713.922 476.273 713.922 474.154C713.922 472.038 712.203 470.323 710.082 470.323C707.96 470.323 706.242 472.038 706.242 474.154Z" fill="#636F7D"/>
<path d="M622.221 405.691C622.221 405.691 644.796 453.275 709.063 470.501" stroke="#636F7D" stroke-miterlimit="10" stroke-linecap="round" stroke-linejoin="round"/>
<path d="M790.084 453.215C790.084 453.215 761.504 474.449 712.052 471.049" stroke="#636F7D" stroke-miterlimit="10" stroke-linecap="round" stroke-linejoin="round"/>
<path d="M636.89 426.606V481.789" stroke="#636F7D" stroke-miterlimit="10" stroke-linecap="round" stroke-linejoin="round"/>
<path d="M647.237 437.155V481.786" stroke="#636F7D" stroke-miterlimit="10" stroke-linecap="round" stroke-linejoin="round"/>
<path d="M657.584 445.738V481.786" stroke="#636F7D" stroke-miterlimit="10" stroke-linecap="round" stroke-linejoin="round"/>
<path d="M667.93 452.824V481.786" stroke="#636F7D" stroke-miterlimit="10" stroke-linecap="round" stroke-linejoin="round"/>
<path d="M678.276 458.689V481.786" stroke="#636F7D" stroke-miterlimit="10" stroke-linecap="round" stroke-linejoin="round"/>
<path d="M688.629 463.522V481.786" stroke="#636F7D" stroke-miterlimit="10" stroke-linecap="round" stroke-linejoin="round"/>
<path d="M698.976 467.444V481.786" stroke="#636F7D" stroke-miterlimit="10" stroke-linecap="round" stroke-linejoin="round"/>
<path d="M783.277 457.343V481.786" stroke="#636F7D" stroke-miterlimit="10" stroke-linecap="round" stroke-linejoin="round"/>
<path d="M772.93 462.133V481.786" stroke="#636F7D" stroke-miterlimit="10" stroke-linecap="round" stroke-linejoin="round"/>
<path d="M762.582 465.747V481.786" stroke="#636F7D" stroke-miterlimit="10" stroke-linecap="round" stroke-linejoin="round"/>
<path d="M752.237 468.385V481.786" stroke="#636F7D" stroke-miterlimit="10" stroke-linecap="round" stroke-linejoin="round"/>
<path d="M741.891 470.159V481.786" stroke="#636F7D" stroke-miterlimit="10" stroke-linecap="round" stroke-linejoin="round"/>
<path d="M731.537 471.157V481.786" stroke="#636F7D" stroke-miterlimit="10" stroke-linecap="round" stroke-linejoin="round"/>
<path d="M721.191 471.407V481.786" stroke="#636F7D" stroke-miterlimit="10" stroke-linecap="round" stroke-linejoin="round"/>
<path d="M591.139 403.788V408.307H462.009V403.788H591.139Z" fill="#636F7D"/>
<path d="M521.22 403.73H463.558V397.169H521.22V403.73Z" stroke="#636F7D" stroke-miterlimit="10" stroke-linecap="round" stroke-linejoin="round"/>
<path d="M491.923 403.73H485.798V397.169H491.923V403.73Z" fill="#636F7D"/>
<path d="M531.93 403.73H589.591V397.169H531.93V403.73Z" stroke="#636F7D" stroke-miterlimit="10" stroke-linecap="round" stroke-linejoin="round"/>
<path d="M561.226 403.73H567.351V397.169H561.226V403.73Z" fill="#636F7D"/>
<path d="M531.934 392.981V403.788H521.216V392.981H522.288V395.384H525.145V395.119L526.031 391.513H527.123L528.003 395.119V395.384H530.862V392.981H531.934Z" fill="#636F7D"/>
<path d="M788.657 470.145V508.281H810.15V470.145H808.72V449.708H808.299L805.262 446.265H793.544L790.507 449.708H790.086V470.145H788.657Z" fill="white"/>
<path d="M810.15 470.145H788.654V508.281H810.15V470.145Z" stroke="#636F7D" stroke-miterlimit="10" stroke-linecap="round" stroke-linejoin="round"/>
<path d="M808.72 449.711H790.084V470.145H808.72V449.711Z" stroke="#636F7D" stroke-miterlimit="10" stroke-linecap="round" stroke-linejoin="round"/>
<path d="M805.259 446.265H793.544L790.084 449.711H808.72L805.259 446.265Z" stroke="#636F7D" stroke-miterlimit="10" stroke-linecap="round" stroke-linejoin="round"/>
<path d="M697.586 489.637H718.911V448.976H697.586V489.637Z" fill="white"/>
<path d="M697.586 489.637H718.911V448.976H697.586V489.637Z" stroke="#636F7D" stroke-miterlimit="10" stroke-linecap="round" stroke-linejoin="round"/>
<path d="M680.139 489.637H697.586V458.657H680.139V489.637Z" fill="white"/>
<path d="M680.139 489.637H697.586V458.657H680.139V489.637Z" stroke="#636F7D" stroke-miterlimit="10" stroke-linecap="round" stroke-linejoin="round"/>
<path d="M680.139 472.211H697.586V464.466H680.139V472.211Z" fill="#636F7D"/>
<path d="M697.586 464.466H718.911V458.657H697.586V464.466Z" fill="#636F7D"/>
<path d="M718.911 464.466H747.989V489.637H718.911V464.466Z" fill="white"/>
<path d="M718.911 464.466H747.989V489.637H718.911V464.466Z" stroke="#636F7D" stroke-miterlimit="10" stroke-linecap="round" stroke-linejoin="round"/>
<path d="M666.569 489.372L670.449 500.748L671.664 504.326L673.261 509H752.991L756.141 504.326L758.552 500.748L771.252 481.892H744.474L728.038 489.372H666.569Z" fill="white"/>
<path d="M666.569 489.372L670.449 500.748L671.664 504.326L673.261 509H752.991L756.141 504.326L758.552 500.748L771.252 481.892H744.474L728.038 489.372H666.569Z" stroke="#636F7D" stroke-miterlimit="10" stroke-linecap="round" stroke-linejoin="round"/>
<path d="M724.726 476.084H747.989V470.275H724.726V476.084Z" fill="#636F7D"/>
<path d="M670.446 501.255L671.65 505.127H755.295L757.682 501.255H670.446Z" fill="#636F7D"/>
</g>
<g opacity="0.3">
<path d="M798.425 105V122.851" stroke="#636F7D" stroke-miterlimit="10" stroke-linecap="round" stroke-linejoin="round"/>
<path d="M774 129.576H791.85" stroke="#636F7D" stroke-miterlimit="10" stroke-linecap="round" stroke-linejoin="round"/>
<path d="M798.577 154V136.151" stroke="#636F7D" stroke-miterlimit="10" stroke-linecap="round" stroke-linejoin="round"/>
<path d="M823 129.425H805.152" stroke="#636F7D" stroke-miterlimit="10" stroke-linecap="round" stroke-linejoin="round"/>
</g>
<g opacity="0.3">
<path d="M11.0313 21V28.2853" stroke="#636F7D" stroke-miterlimit="10" stroke-linecap="round" stroke-linejoin="round"/>
<path d="M21 31.0301H13.7147" stroke="#636F7D" stroke-miterlimit="10" stroke-linecap="round" stroke-linejoin="round"/>
<path d="M10.9699 41V33.7147" stroke="#636F7D" stroke-miterlimit="10" stroke-linecap="round" stroke-linejoin="round"/>
<path d="M1 30.9687H8.2867" stroke="#636F7D" stroke-miterlimit="10" stroke-linecap="round" stroke-linejoin="round"/>
</g>
<g opacity="0.3">
<path d="M831.031 54V61.2853" stroke="#636F7D" stroke-miterlimit="10" stroke-linecap="round" stroke-linejoin="round"/>
<path d="M841 64.0301H833.715" stroke="#636F7D" stroke-miterlimit="10" stroke-linecap="round" stroke-linejoin="round"/>
<path d="M830.97 74V66.7147" stroke="#636F7D" stroke-miterlimit="10" stroke-linecap="round" stroke-linejoin="round"/>
<path d="M821 63.9687H828.287" stroke="#636F7D" stroke-miterlimit="10" stroke-linecap="round" stroke-linejoin="round"/>
</g>
<g opacity="0.3">
<path d="M47.0313 445V452.285" stroke="#636F7D" stroke-miterlimit="10" stroke-linecap="round" stroke-linejoin="round"/>
<path d="M57 455.03H49.7147" stroke="#636F7D" stroke-miterlimit="10" stroke-linecap="round" stroke-linejoin="round"/>
<path d="M46.9699 465V457.715" stroke="#636F7D" stroke-miterlimit="10" stroke-linecap="round" stroke-linejoin="round"/>
<path d="M37 454.969H44.2867" stroke="#636F7D" stroke-miterlimit="10" stroke-linecap="round" stroke-linejoin="round"/>
</g>
<g opacity="0.3">
<path d="M53.5492 58V69.2926" stroke="#636F7D" stroke-miterlimit="10" stroke-linecap="round" stroke-linejoin="round"/>
<path d="M69 73.5477H57.7075" stroke="#636F7D" stroke-miterlimit="10" stroke-linecap="round" stroke-linejoin="round"/>
<path d="M53.4522 89V77.7074" stroke="#636F7D" stroke-miterlimit="10" stroke-linecap="round" stroke-linejoin="round"/>
<path d="M38 73.4521H49.2925" stroke="#636F7D" stroke-miterlimit="10" stroke-linecap="round" stroke-linejoin="round"/>
</g>
<g opacity="0.3">
<path d="M198.549 397V408.293" stroke="#636F7D" stroke-miterlimit="10" stroke-linecap="round" stroke-linejoin="round"/>
<path d="M214 412.548H202.708" stroke="#636F7D" stroke-miterlimit="10" stroke-linecap="round" stroke-linejoin="round"/>
<path d="M198.452 428V416.707" stroke="#636F7D" stroke-miterlimit="10" stroke-linecap="round" stroke-linejoin="round"/>
<path d="M183 412.452H194.292" stroke="#636F7D" stroke-miterlimit="10" stroke-linecap="round" stroke-linejoin="round"/>
</g>
<g opacity="0.3">
<path d="M799 31.0003C799 47.5683 785.569 61 769 61C752.431 61 739 47.5683 739 31.0003C739 14.4317 752.431 0.999997 769 0.999997C785.569 0.999997 799 14.4317 799 31.0003Z" stroke="#636F7D" stroke-miterlimit="10" stroke-linecap="round" stroke-linejoin="round"/>
<path d="M748.508 36.9501C748.508 35.606 749.598 34.5159 750.943 34.5159C752.287 34.5159 753.377 35.606 753.377 36.9501C753.377 38.2948 752.287 39.3849 750.943 39.3849C749.598 39.3849 748.508 38.2948 748.508 36.9501Z" stroke="#636F7D" stroke-miterlimit="10" stroke-linecap="round" stroke-linejoin="round"/>
<path d="M764.355 49.9913C764.355 47.9741 765.99 46.3397 768.006 46.3397C770.023 46.3397 771.658 47.9741 771.658 49.9913C771.658 52.0077 770.023 53.6428 768.006 53.6428C765.99 53.6428 764.355 52.0077 764.355 49.9913Z" stroke="#636F7D" stroke-miterlimit="10" stroke-linecap="round" stroke-linejoin="round"/>
<path d="M753.047 46.9218C753.047 45.6088 754.111 44.5451 755.423 44.5451C756.735 44.5451 757.8 45.6088 757.8 46.9218C757.8 48.2349 756.735 49.2986 755.423 49.2986C754.111 49.2986 753.047 48.2349 753.047 46.9218Z" stroke="#636F7D" stroke-miterlimit="10" stroke-linecap="round" stroke-linejoin="round"/>
<path d="M761.724 38.3953C761.724 37.2933 762.618 36.3992 763.72 36.3992C764.822 36.3992 765.716 37.2933 765.716 38.3953C765.716 39.4972 764.822 40.3906 763.72 40.3906C762.618 40.3906 761.724 39.4972 761.724 38.3953Z" stroke="#636F7D" stroke-miterlimit="10" stroke-linecap="round" stroke-linejoin="round"/>
</g>
</svg>
