<svg width="44" height="44" viewBox="0 0 44 44" fill="none" xmlns="http://www.w3.org/2000/svg">
<rect width="44" height="44" rx="22" fill="#F2F3F5"/>
<path d="M14 16L22.2286 22L29.9999 16M31 18.2V25.8C31 26.9201 31.0002 27.4802 30.7822 27.908C30.5905 28.2844 30.2841 28.5902 29.9078 28.782C29.48 29 28.9203 29 27.8002 29H16.2002C15.0801 29 14.5196 29 14.0918 28.782C13.7155 28.5902 13.4097 28.2844 13.218 27.908C13 27.4802 13 26.9201 13 25.8V18.2C13 17.0798 13 16.5199 13.218 16.092C13.4097 15.7157 13.7155 15.4097 14.0918 15.218C14.5196 15 15.0801 15 16.2002 15H27.8002C28.9203 15 29.48 15 29.9078 15.218C30.2841 15.4097 30.5905 15.7157 30.7822 16.092C31.0002 16.5199 31 17.0798 31 18.2Z" stroke="#212124" stroke-width="2" stroke-linecap="round" stroke-linejoin="round"/>
</svg>
