<svg width="44" height="44" viewBox="0 0 44 44" fill="none" xmlns="http://www.w3.org/2000/svg">
<rect width="44" height="44" rx="22" fill="#F2F3F5"/>
<path d="M19.5029 14.2572C19.1992 13.4979 18.4638 13 17.646 13H14.8947C13.8483 13 13 13.8483 13 14.8948C13 23.7895 20.2108 31 29.1055 31C30.1519 31 31 30.1518 31 29.1053L30.9999 26.354C30.9999 25.5362 30.5019 24.8009 29.7426 24.4971L27.1071 23.4429C26.4251 23.1701 25.6485 23.293 25.0842 23.7633L24.4031 24.3307C23.6084 24.9929 22.44 24.94 21.7085 24.2085L19.7914 22.2915C19.0599 21.5601 19.0072 20.3915 19.6694 19.5969L20.2368 18.916C20.7071 18.3516 20.83 17.5749 20.5572 16.8929L19.5029 14.2572Z" stroke="#212124" stroke-width="2" stroke-linecap="round" stroke-linejoin="round"/>
</svg>
